<?xml version="1.0" encoding="UTF-8" standalone="no"?>
<svg
   xmlns:dc="http://purl.org/dc/elements/1.1/"
   xmlns:cc="http://creativecommons.org/ns#"
   xmlns:rdf="http://www.w3.org/1999/02/22-rdf-syntax-ns#"
   xmlns:svg="http://www.w3.org/2000/svg"
   xmlns="http://www.w3.org/2000/svg"
   width="522.65338mm"
   height="73.136719mm"
   viewBox="0 0 522.65339 73.136719"
   version="1.1"
   id="svg259">
  <defs
     id="defs253" />
  <metadata
     id="metadata256">
    <rdf:RDF>
      <cc:Work
         rdf:about="">
        <dc:format>image/svg+xml</dc:format>
        <dc:type
           rdf:resource="http://purl.org/dc/dcmitype/StillImage" />
        <dc:title></dc:title>
      </cc:Work>
    </rdf:RDF>
  </metadata>
  <g
     id="layer1"
     transform="translate(273.51684,-63.614157)">
    <path
       style="opacity:1;fill:#000000;fill-opacity:1;fill-rule:nonzero;stroke:none;stroke-width:0.00949042;stroke-linecap:round;stroke-linejoin:round;stroke-miterlimit:4;stroke-dasharray:none;stroke-dashoffset:0;stroke-opacity:0.97989951;paint-order:normal"
       d="m -263.86467,115.6999 c -0.84901,-0.0467 -1.89185,-0.19469 -2.67358,-0.37957 -1.07085,-0.25327 -2.54842,-0.87109 -3.49949,-1.46324 -0.45899,-0.28579 -0.83253,-0.59162 -1.30602,-1.06923 -1.07757,-1.08698 -1.67627,-2.17912 -1.90329,-3.47205 l -0.0722,-0.41154 V 97.705594 c 0,-10.68347 0.003,-11.21468 0.0583,-11.54706 0.2581,-1.54035 1.30051,-3.0815 2.81005,-4.15453 1.04548,-0.74317 2.17586,-1.29164 3.49341,-1.69502 1.05564,-0.32318 1.97645,-0.48379 3.18428,-0.55533 0.89844,-0.0532 27.67433,-0.0268 28.20831,0.0277 1.1834,0.12107 1.89702,0.23676 2.6974,0.43732 1.3309,0.3335 2.49428,0.83926 3.47215,1.50947 1.66997,1.14457 2.58263,2.70036 2.79064,4.75715 0.0547,0.54052 0.0218,1.48767 -0.0662,1.91287 -0.0953,0.45969 -0.28717,0.947711 -0.51094,1.299401 -0.21904,0.344209 -0.71999,0.860339 -1.30631,1.345889 -0.52702,0.43643 -0.79108,0.62026 -1.56416,1.088829 -2.39501,1.451642 -4.44635,1.989522 -7.58774,1.989611 l -0.66504,2.2e-5 v -3.41766 -3.417662 h -11.71413 -11.71413 v 10.501859 10.501857 h 11.74618 11.74618 v -3.64995 -3.64993 h 5.76893 5.76893 v 3.72459 c 0,3.90579 -0.009,4.18187 -0.14453,4.88664 -0.44145,2.28353 -2.10246,4.09764 -4.73419,5.17057 -1.27926,0.52154 -2.70737,0.80974 -4.54376,0.91694 -0.50397,0.0293 -27.21036,0.0398 -27.73893,0.0111 z"
       id="path45" />
    <path
       style="opacity:1;fill:#000000;fill-opacity:1;fill-rule:nonzero;stroke:none;stroke-width:0.00662849;stroke-linecap:round;stroke-linejoin:round;stroke-miterlimit:4;stroke-dasharray:none;stroke-dashoffset:0;stroke-opacity:0.97989951;paint-order:normal"
       d="m -216.52815,111.95159 c -0.29918,-0.0164 -0.90362,-0.0813 -1.24798,-0.1338 -0.98484,-0.15041 -1.68187,-0.37746 -2.57274,-0.83807 -0.70495,-0.36448 -1.12084,-0.66707 -1.66871,-1.21419 -0.82169,-0.82052 -1.20782,-1.51161 -1.38237,-2.47416 l -0.0526,-0.28936 -0.006,-8.171995 c -0.004,-5.75314 5.3e-4,-8.25078 0.0176,-8.438211 0.0792,-0.8656 0.37884,-1.58647 1.00569,-2.41918 0.1893,-0.25146 0.68345,-0.746919 0.9479,-0.95038 0.78451,-0.6036 1.57066,-0.97269 2.77734,-1.30392 0.78924,-0.21665 1.40884,-0.32185 2.20305,-0.37405 0.57379,-0.0378 20.74698,-0.0188 21.09974,0.0197 1.6207,0.17726 2.66757,0.46056 3.69792,1.00064 0.61673,0.32329 1.08234,0.65723 1.49801,1.0744 0.71557,0.71816 1.10039,1.49525 1.273,2.5707 0.0391,0.24319 0.0409,0.63542 0.0409,8.716009 0,8.004867 -0.002,8.473857 -0.0399,8.692867 -0.16866,0.98057 -0.51482,1.66918 -1.21468,2.41635 -0.68535,0.73166 -1.36381,1.15923 -2.46042,1.55056 -0.89531,0.3195 -1.80251,0.48235 -3.10859,0.55804 -0.37312,0.0217 -20.41748,0.0291 -20.80669,0.007 z m 19.05879,-13.237336 v -7.789989 h -8.66105 -8.66104 v 7.789989 7.790006 h 8.66104 8.66105 z"
       id="path47" />
    <path
       style="opacity:1;fill:#000000;fill-opacity:1;fill-rule:nonzero;stroke:none;stroke-width:0.00937685;stroke-linecap:round;stroke-linejoin:round;stroke-miterlimit:4;stroke-dasharray:none;stroke-dashoffset:0;stroke-opacity:0.97989951;paint-order:normal"
       d="m -178.09511,111.96898 c -1.11961,-0.0359 -2.28963,-0.21798 -3.00267,-0.46733 -1.00186,-0.35034 -1.8543,-0.79326 -2.40189,-1.24804 -0.93271,-0.77461 -1.60038,-1.74946 -1.84943,-2.70039 l -0.10262,-0.39187 -0.009,-10.931605 -0.009,-10.931591 1.07057,0.0196 c 1.68281,0.0309 2.7213,0.15815 3.84516,0.47097 0.7197,0.20032 1.59284,0.56774 2.09712,0.88249 0.70826,0.44207 1.20158,1.07924 1.45466,1.87881 0.19991,0.63161 0.18994,0.1351 0.18994,9.45663 v 8.483416 h 7.6737 7.67373 V 95.898966 85.307834 h 4.29664 4.29664 v 10.7669 c 0,11.633326 0.01,10.976756 -0.15898,11.561786 -0.24817,0.8642 -1.0892,2.00637 -1.99798,2.71339 -0.88292,0.6869 -2.23267,1.24442 -3.5349,1.46009 -1.01313,0.16777 -0.51833,0.15984 -10.22633,0.16408 -4.96176,0.002 -9.14979,-1.6e-4 -9.30675,-0.005 z"
       id="path49" />
    <path
       style="opacity:1;fill:#000000;fill-opacity:1;fill-rule:nonzero;stroke:none;stroke-width:0.00935092;stroke-linecap:round;stroke-linejoin:round;stroke-miterlimit:4;stroke-dasharray:none;stroke-dashoffset:0;stroke-opacity:0.97989951;paint-order:normal"
       d="m -149.3169,98.575515 0.009,-13.251201 0.94603,-0.0109 c 1.02842,-0.0112 2.33303,0.0375 2.93269,0.109669 1.00341,0.120711 2.4338,0.536181 3.55151,1.03154 0.97337,0.431391 1.51962,0.755411 2.0484,1.215031 0.25109,0.21825 9.53627,9.345822 9.83619,9.669219 0.0954,0.102913 0.33663,0.328562 0.53608,0.50156 0.19946,0.173001 0.54779,0.499272 0.77407,0.725072 0.44426,0.443289 0.97932,0.940959 1.48064,1.37721 l 0.31535,0.274405 0.0165,-5.073066 c 0.0164,-5.02989 0.0172,-5.07629 0.0849,-5.45024 0.31063,-1.71355 1.17461,-2.75079 2.92528,-3.51187 1.30044,-0.56536 2.67199,-0.82066 4.64395,-0.86444 l 0.92239,-0.0204 v 13.26457 13.264566 l -6.85044,-1.7e-4 c -9.14106,-8.74707 -9.14689,-8.74556 -15.52326,-14.969135 l -0.008,7.484645 -0.008,7.48466 h -4.32018 -4.32018 z"
       id="path51" />
    <path
       style="opacity:1;fill:#000000;fill-opacity:1;fill-rule:nonzero;stroke:none;stroke-width:0.00935331;stroke-linecap:round;stroke-linejoin:round;stroke-miterlimit:4;stroke-dasharray:none;stroke-dashoffset:0;stroke-opacity:0.97989951;paint-order:normal"
       d="M -102.45771,101.45537 V 90.946103 h -6.58235 -6.58235 l 0.0169,-0.826679 c 0.0231,-1.13146 0.13025,-1.74062 0.41739,-2.37304 0.26624,-0.58639 0.5826,-0.97659 1.06483,-1.31338 0.87772,-0.61298 2.01153,-0.96168 3.52397,-1.08379 0.28704,-0.0231 5.17982,-0.0343 15.120617,-0.0343 h 14.69625 v 0.82753 c 0,0.87804 -0.0272,1.221591 -0.13029,1.64429 -0.135,0.553641 -0.34546,0.98126 -0.66044,1.341921 -0.85666,0.980899 -1.85043,1.45694 -3.48437,1.66911 -0.82867,0.1076 -1.39006,0.123071 -5.02377,0.138499 l -3.6671,0.0155 -0.01,8.271939 c -0.0104,8.933117 -0.0177,12.703187 -0.0177,12.703187 0,0 -5.38566,0.0378 -8.681807,0.0378 z"
       id="path53" />
    <path
       style="opacity:1;fill:#000000;fill-opacity:1;fill-rule:nonzero;stroke:none;stroke-width:0.00937501;stroke-linecap:round;stroke-linejoin:round;stroke-miterlimit:4;stroke-dasharray:none;stroke-dashoffset:0;stroke-opacity:0.97989951;paint-order:normal"
       d="m -71.950433,111.96851 c -0.73756,-0.0236 -1.47726,-0.11049 -2.19445,-0.25768 -0.78913,-0.16199 -1.8559,-0.59819 -2.6701,-1.09186 -0.82998,-0.50323 -1.78649,-1.60038 -2.14307,-2.4582 -0.13415,-0.32271 -0.19283,-0.5236 -0.27282,-0.93385 -0.0546,-0.27981 -0.0574,-0.70966 -0.0574,-8.544905 0,-6.389352 0.009,-8.302551 0.0391,-8.48197 0.10577,-0.627441 0.31748,-1.15951 0.68921,-1.732191 0.61121,-0.941599 1.23084,-1.48241 2.34636,-2.04791 1.11537,-0.56541 2.01529,-0.8425 3.37574,-1.03942 0.32758,-0.0475 1.38613,-0.054 10.4442,-0.0645 6.87642,-0.007 10.27393,-5.82e-4 10.6909,0.0231 1.34102,0.0766 2.43147,0.29402 3.39847,0.67756 0.95533,0.3789 1.993,1.07412 2.49087,1.66884 0.69981,0.83594 1.02463,1.69576 1.10852,2.934379 l 0.0216,0.319212 h -12.9679 -12.96789 v 2.471787 2.471823 h 8.19371 14.71402 v 2.799209 2.799196 h -14.71402 -8.19371 v 2.50454 2.50455 h 12.96789 12.96789 l -0.0213,0.31921 c -0.0337,0.50337 -0.1079,0.90934 -0.2446,1.33783 -0.40604,1.27274 -1.33568,2.27848 -2.69555,2.91617 -1.23477,0.57903 -2.35352,0.81687 -4.20578,0.89415 -0.6422,0.0268 -19.2883,0.0368 -20.09977,0.0109 z"
       id="path55" />
    <path
       style="opacity:1;fill:#000000;fill-opacity:1;fill-rule:nonzero;stroke:none;stroke-width:0.00661906;stroke-linecap:round;stroke-linejoin:round;stroke-miterlimit:4;stroke-dasharray:none;stroke-dashoffset:0;stroke-opacity:0.97989951;paint-order:normal"
       d="m -21.480193,106.51531 c -2.30435,-3.04315 -5.0565,-6.675595 -6.11589,-8.072084 -1.0594,-1.3965 -1.92667,-2.546901 -1.92727,-2.556452 -5.3e-4,-0.01021 2.99538,-0.01741 6.65775,-0.01741 h 6.65887 v -2.465501 -2.46548 h -8.66948 -8.66948 l -0.007,7.80738 -0.007,7.807357 -0.0498,0.35726 c -0.1478,1.05905 -0.39425,1.82474 -0.79843,2.48063 -0.79819,1.29529 -2.19239,2.02188 -4.39001,2.2879 -0.82958,0.10044 -1.20001,0.1221 -2.29596,0.13434 l -1.07816,0.0121 V 98.568725 85.312154 l 13.80373,0.009 c 10.02822,0.005 13.87401,0.0154 14.06069,0.0344 0.88986,0.0904 1.36398,0.16718 1.96102,0.31735 0.97019,0.24405 1.7346,0.583881 2.4856701,1.10506 0.4007,0.27805 0.5477,0.39871 0.82352,0.67601 0.81098,0.81526 1.22449,1.75692 1.32096,3.008179 0.0309,0.40078 0.0309,5.553652 0,5.95444 -0.0977,1.266931 -0.53655,2.26359 -1.36567,3.101372 -0.31006,0.313309 -0.49552,0.468098 -0.80087,0.668505 -1.1780801,0.77313 -2.8124901,1.23258 -4.8106801,1.35232 -0.18161,0.0109 -0.33563,0.0255 -0.34228,0.0323 -0.007,0.006 1.81896,2.35223 4.0569,5.21187 2.2379401,2.85964 4.0748201,5.21505 4.0819101,5.23422 0.0114,0.0309 -0.56489,0.0348 -5.1903301,0.0333 l -5.20323,-10e-4 z"
       id="path57" />
    <path
       style="opacity:1;fill:#000000;fill-opacity:1;fill-rule:nonzero;stroke:none;stroke-width:0.0188886;stroke-linecap:round;stroke-linejoin:round;stroke-miterlimit:4;stroke-dasharray:none;stroke-dashoffset:0;stroke-opacity:0.97989951;paint-order:normal"
       d="m 25.367127,124.09107 c -0.25001,-0.028 -0.61177,-0.11898 -0.80396,-0.20238 -0.45104,-0.19567 -1.1837,-0.74593 -1.87606,-1.40894 -0.54589,-0.52278 -0.54935,-0.52812 -0.54935,-0.85044 v -0.32435 l -0.4694,-0.11789 -0.46945,-0.11791 0.0332,-0.2007 c 0.26131,-1.57993 0.18799,-3.08442 -0.21656,-4.44374 -0.1774,-0.59603 -0.36224,-0.86719 -0.72892,-1.0691 -0.16278,-0.0896 -0.34309,-0.20277 -0.40074,-0.25144 -0.10197,-0.0861 -0.47623,-1.17194 -0.74457,-2.16018 -0.17235,-0.63476 -0.59978,-2.81954 -0.86825,-4.43824 l -0.2118,-1.27699 -3.82175,-4.30935 -3.82172,-4.309367 -0.5812099,1.382292 c -2.02684,4.820465 -2.97553,7.212075 -3.66683,9.244045 -0.95621,2.81069 -1.37425,3.70271 -2.25722,4.81641 -0.40843,0.51515 -1.28574,1.12752 -2.52007,1.75902 -1.28397003,0.65687 -2.24671003,0.91762 -2.62811,0.71175 -0.0718,-0.0387 -0.14536,-0.0555 -0.16349,-0.0372 -0.018,0.0183 0.0693,0.40928 0.19423,0.86891 0.24846997,0.9141 0.35951997,1.42965 0.38351997,1.78081 0.0153,0.22377 0.0254,0.23151 0.53266,0.40504 0.28437,0.0974 0.56792,0.23987 0.63013,0.31682 0.26254,0.3248 0.054,0.75292 -0.44416,0.91152 -0.34949,0.11126 -1.92396997,0.15335 -2.55144997,0.0682 -0.70141,-0.0953 -1.24992,-0.36388 -1.64566,-0.80613 -0.3874,-0.43296 -0.76851,-1.22181 -0.9003,-1.8636 -0.22841,-1.11212 -0.29681,-1.18818 -0.67633,-0.75225 -0.11252,0.12922 -0.21433,0.22455 -0.22627,0.21183 -0.0932,-0.0994 -0.22886,-0.82031 -0.22886,-1.21628 0,-0.43422 0.0267,-0.53878 0.25389,-0.99666 0.40979,-0.82568 0.69467,-1.20967 1.63727,-2.20683 l 0.89059,-0.94213 -0.0418,-0.55819 -0.0418,-0.55818 0.92913,-0.8798 c 0.51102,-0.48389 1.21267,-1.1256 1.55925,-1.42602 0.34656997,-0.30041 0.63012997,-0.55531 0.63012997,-0.56643 0,-0.12427 0.98533,-4.46663 1.22605,-5.40318 0.35975003,-1.39976 1.74162003,-6.340466 2.29698003,-8.212597 l 0.36735,-1.23842 -0.103,-0.47327 c -0.15209,-0.69895 -0.2534,-2.276049 -0.20818,-3.24197 0.0494,-1.05573 0.2354,-2.323 0.52139,-3.55228 0.25199,-1.08311 0.28752,-1.34276 0.54872,-4.00854 0.1783,-1.8202 0.23254,-2.54387 0.38822,-5.18176 0.0856,-1.45048 0.32957,-2.14988 1.10268,-3.16145 0.43183,-0.56498 1.28947,-1.58509 1.6225,-1.92996 l 0.32036,-0.33165 0.50649,0.0451 c 0.38889,0.0348 0.5497,0.0229 0.6926,-0.051 0.10237,-0.0529 0.46964,-0.17689 0.81622,-0.27565 0.3466,-0.0988 0.6301499,-0.19854 0.6301499,-0.22177 0,-0.0232 -0.0827,-0.0914 -0.18367,-0.15166 l -0.1836699,-0.10941 -0.0423,-1.02897 c -0.0236,-0.56594 -0.0424,-1.4456 -0.0425,-1.95481 -2.2e-4,-0.80658 0.019,-0.979724 0.15025,-1.343986 0.4315099,-1.198851 1.1855999,-1.904546 2.5164299,-2.354911 0.40227,-0.136122 0.71628,-0.183583 1.5834,-0.239285 1.71833,-0.110378 2.46687,0.0147 3.25199,0.543459 1.21259,0.816618 2.02753,2.010287 2.32669,3.408043 0.069,0.32205 0.14449,0.45936 0.42791,0.77797 0.18929,0.2128 0.32198,0.40902 0.29483,0.43603 -0.0271,0.0271 -0.38203,0.18028 -0.78859,0.34058 -0.71763,0.28298 -0.74353,0.30016 -0.88956,0.58992 -0.14901,0.29569 -0.14941,0.30278 -0.0445,0.76818 0.0911,0.40391 0.0946,0.53416 0.0249,0.92945 -0.0447,0.25284 -0.095,0.49638 -0.11195,0.54118 -0.0236,0.0619 0.13086,0.0814 0.64355,0.0814 h 0.67424 l 0.29919,-0.47632 c 0.16457,-0.26197 0.41931,-0.61395 0.56613,-0.78215 l 0.26693,-0.30584 h 1.25479 1.25476 v -0.22812 -0.22813 h 0.71094 0.71093 v 0.48884 0.48885 h 1.35723 1.35724 v 0.22813 0.22812 h 1.42184 1.42185 v -0.19554 c 0,-0.18467 0.0143,-0.19553 0.25852,-0.19553 h 0.25852 v -0.423659 -0.42366 h 0.2262 c 0.18312,0 0.22622,0.0248 0.22622,0.13034 0,0.10864 0.0431,0.13036 0.25849,0.13036 h 0.25853 v 0.74957 0.74957 h 1.13101 1.13102 v -0.45627 -0.45625 h 0.35546 0.35547 v 0.52144 0.52143 h 1.19565 1.19566 v -0.55402 -0.55403 h 0.54932 0.54939 v 1.20582 1.20581 h 0.90482 0.90479 v 0.74957 0.74956 h -3.57555 -3.5755 l -0.0739,0.40076 c -0.0412,0.22345 -0.14857,0.50944 -0.24271,0.64643 -0.25246,0.36738 -1.11675,0.78521 -1.77435,0.85778 -0.15163,0.0168 -0.16279,0.044 -0.18131,0.44149 -0.023,0.49867 0.15851,1.3243 0.4731,2.14892 0.30345,0.7955 1.05076,2.41809 1.40869,3.05862 0.16817,0.30098 0.29596,0.55713 0.28395,0.56923 -0.0119,0.0121 -0.35422,0.18008 -0.76046,0.37329 -0.86397,0.4109 -0.69215,0.4995 -1.36753,-0.70512 -0.62836,-1.12078 -0.97142,-1.99049 -1.35334,-3.43117 -0.18431,-0.69531 -0.34393,-1.27572 -0.3547,-1.28978 -0.0515,-0.0673 -0.23903,0.18766 -0.56515,0.76855 l -0.35743,0.63664 -0.63259,0.14435 c -0.46728,0.10668 -0.81328,0.14163 -1.32405,0.13387 -0.80233,-0.0122 -0.67684,-0.0783 -1.73292,0.91253 -0.37364,0.35057 -0.74282,0.65768 -0.82034,0.6825 -0.0775,0.0249 -0.30988,0.17795 -0.51628,0.34029 -0.44347,0.34875 -1.32726,0.90906 -1.866,1.183 l -0.38354,0.19504 -1.61576,-0.11888 c -0.88866,-0.0654 -1.75011,-0.13064 -1.91434,-0.14504 l -0.29861,-0.0263 -0.0374,0.403579 c -0.0532,0.574221 -0.19871,0.903261 -0.44911,1.015371 -0.27204,0.12179 -0.3524,0.40802 -0.46056,1.64036 -0.0889,1.01379 -0.1448,1.16895 -0.44852,1.24583 -0.0777,0.0197 -0.19346,0.12479 -0.2572,0.23363 -0.21815,0.37243 -0.28911,0.86485 -0.33615,2.33299 l -0.0465,1.45003 0.28845,-0.0398 c 0.21259,-0.0293 0.3633,-0.006 0.57303,0.0874 0.66794,0.298841 1.95673,1.571249 2.79104,2.75554 0.21468,0.304721 0.5279,0.715341 0.69612,0.912521 0.67029,0.7858 1.2719,1.905379 1.63674,3.045929 0.1288,0.40264 0.23418,0.765212 0.23418,0.805701 0,0.0405 -0.14542,0.316399 -0.32316,0.613159 -0.17772,0.296751 -0.32314,0.559292 -0.32314,0.583426 0,0.0242 0.84296,1.09909 1.87328,2.38882 l 1.87325,2.34492 0.4159,1.67586 c 0.73662,2.9684 1.11098,5.03169 1.2392,6.83001 0.0524,0.73463 0.005,0.84229 -0.68191,1.55932 -0.31478,0.32841 -0.52994,0.61457 -0.58129,0.77308 -0.10094,0.31163 -0.0503,0.74156 0.16282,1.38183 0.087,0.26138 0.15817,0.54214 0.15817,0.62391 0,0.25029 0.7252,0.89213 1.57115,1.39053 0.59738,0.35196 0.84455,0.5427 1.13739,0.8777 0.93977,1.07511 1.4278,2.12395 1.4278,3.06872 0,0.28935 -0.0383,0.42542 -0.18518,0.65909 -0.31237,0.49671 -0.47871,0.54419 -1.94763,0.55559 -0.69315,0.005 -1.46481,-0.0131 -1.71479,-0.0409 z m -6.88094,-46.146516 c 0.37322,-0.0318 0.76544,-0.0911 0.87156,-0.13184 0.10615,-0.0407 0.33322,-0.23278 0.50462,-0.42672 0.27572,-0.31199 0.36515,-0.3681 0.7765,-0.48705 0.5734,-0.16587 2.02252,-0.80079 2.39032,-1.04728 0.14954,-0.10022 0.38359,-0.29802 0.52009,-0.43947 l 0.24816,-0.2572 -1.71411,-0.048 c -2.41096,-0.0675 -2.38868,-0.0701 -3.30549,0.3813 -0.93565,0.46068 -1.28511,0.69755 -1.38046,0.93567 -0.0402,0.10042 -0.14394,0.51641 -0.23056,0.92453 l -0.15743,0.74203 0.3991,-0.0441 c 0.2195,-0.0243 0.70448,-0.0701 1.0777,-0.10185 z"
       id="path61" />
    <path
       style="opacity:1;fill:#000000;fill-opacity:1;fill-rule:nonzero;stroke:none;stroke-width:0.00948576;stroke-linecap:round;stroke-linejoin:round;stroke-miterlimit:4;stroke-dasharray:none;stroke-dashoffset:0;stroke-opacity:0.97989951;paint-order:normal"
       d="m 43.715107,115.6978 c -0.82891,-0.0398 -2.09905,-0.19903 -2.8534,-0.35771 -1.353,-0.2846 -3.08322,-0.99655 -4.05103,-1.66693 -0.90652,-0.62792 -1.81454,-1.52563 -2.28995,-2.26388 -0.18423,-0.28609 -0.42939,-0.79956 -0.53745,-1.12546 -0.17835,-0.53794 -0.30696,-1.28555 -0.30818,-1.79134 v -0.25667 h 17.65937 17.65938 v -3.34495 -3.34496 l -12.4546,-2.6e-4 c -12.46849,-2.7e-4 -13.30161,-0.008 -14.33118,-0.11737 -1.19068,-0.12748 -1.99578,-0.29381 -2.87107,-0.59321 -1.19944,-0.41025 -2.17652,-0.912761 -2.95045,-1.517421 -0.94769,-0.740381 -1.69976,-1.61421 -2.08701,-2.424819 -0.24085,-0.50424 -0.37473,-0.902901 -0.48125,-1.433121 -0.14137,-0.703971 -0.1487,-0.963181 -0.13589,-4.826251 0.0132,-3.979449 0.007,-3.820559 0.20706,-4.702829 0.29798,-1.30873 0.90591,-2.38362 1.91408,-3.38423 1.08402,-1.07591 2.45144,-1.81954 4.15901,-2.26176 0.9435,-0.24434 1.63005,-0.37145 2.63221,-0.48735 0.46021,-0.0532 1.45372,-0.0581 13.96854,-0.0688 9.5327,-0.008 13.68888,-8.74e-4 14.21093,0.0251 2.87039,0.14257 5.00891,0.705259 6.86806,1.80715 1.23819,0.73386 2.0738,1.71617 2.52788,2.971589 0.2559,0.707611 0.39425,1.43315 0.42608,2.234591 l 0.0201,0.50506 h -17.51999 -17.52 v 3.311839 3.31184 l 11.97343,5.29e-4 c 7.18503,2.65e-4 12.27487,0.01349 12.72725,0.0328 1.23106,0.0524 2.11932,0.16411 3.44136,0.432538 1.94252,0.394401 3.31674,0.981001 4.48209,1.91321 0.64135,0.513051 1.39065,1.406962 1.77785,2.120971 0.31115,0.573739 0.5158,1.224259 0.59481,1.890774 0.0212,0.17997 0.0332,1.75478 0.0332,4.38946 0,4.64536 0,4.61312 -0.24421,5.54695 -0.45482,1.72911 -1.57803,3.05703 -3.35582,3.96742 -1.71944,0.88056 -3.70337,1.35462 -6.26419,1.49689 -0.51234,0.0284 -26.44267,0.0386 -27.0264,0.0111 z"
       id="path63" />
    <path
       style="opacity:1;fill:#000000;fill-opacity:1;fill-rule:nonzero;stroke:none;stroke-width:0.00933048;stroke-linecap:round;stroke-linejoin:round;stroke-miterlimit:4;stroke-dasharray:none;stroke-dashoffset:0;stroke-opacity:0.97989951;paint-order:normal"
       d="m 160.51407,111.91214 c 1.17261,-0.12136 2.02176,-0.35629 3.05385,-0.84492 0.83487,-0.39525 1.37057,-0.78496 1.95644,-1.42322 0.72808,-0.79318 1.11844,-1.54559 1.26671,-2.4416 0.0427,-0.25723 0.0481,-1.53657 0.0481,-11.090405 V 85.312354 h -4.25429 -4.25424 v 13.324851 13.324845 l 0.88696,-0.003 c 0.48782,-0.002 1.0712,-0.0228 1.29644,-0.0462 z"
       id="path69" />
    <path
       style="opacity:1;fill:#000000;fill-opacity:1;fill-rule:nonzero;stroke:none;stroke-width:0.00935104;stroke-linecap:round;stroke-linejoin:round;stroke-miterlimit:4;stroke-dasharray:none;stroke-dashoffset:0;stroke-opacity:0.97989951;paint-order:normal"
       d="M 171.2756,98.641015 V 85.312354 h 4.30448 4.30446 l 0.009,5.863162 0.009,5.863158 5.54524,-5.863158 5.54522,-5.863162 h 4.76509 4.76509 l -0.10869,0.11805 c -0.0598,0.065 -2.68076,2.86742 -5.8244,6.227791 -3.14368,3.360359 -5.71577,6.1205 -5.71577,6.133629 0,0.0131 3.4661,3.179206 7.7025,7.035716 4.23632,3.85652 7.73083,7.04002 7.76552,7.07445 0.0621,0.0616 0.003,0.0625 -3.87885,0.0511 -4.24725,-0.0125 -4.11234,-0.007 -4.97988,-0.18809 -0.41344,-0.0862 -1.193,-0.32636 -1.72132,-0.53036 -0.74785,-0.28875 -1.19492,-0.54947 -1.95371,-1.13938 -0.26967,-0.20962 -0.62508,-0.47798 -0.78986,-0.59633 -0.16479,-0.11837 -2.73334,-2.36046 -5.70786,-4.98239 l -5.40832,-4.767195 -0.0172,3.937405 c -0.0169,3.88033 -0.0185,3.94144 -0.0847,4.21568 -0.136,0.56246 -0.2907,0.92422 -0.59905,1.40096 -0.71014,1.0978 -1.76154,1.75793 -3.55623,2.2328 -1.08705,0.28763 -1.94138,0.39491 -3.3191,0.41685 l -1.04851,0.0167 z"
       id="path71" />
    <path
       style="opacity:1;fill:#000000;fill-opacity:1;fill-rule:nonzero;stroke:none;stroke-width:0.00935331;stroke-linecap:round;stroke-linejoin:round;stroke-miterlimit:4;stroke-dasharray:none;stroke-dashoffset:0;stroke-opacity:0.97989951;paint-order:normal"
       d="M 95.659037,101.45537 V 90.946103 h -6.58233 -6.58236 l 0.0169,-0.826679 c 0.023,-1.13146 0.13026,-1.74062 0.41738,-2.37304 0.26625,-0.58639 0.58259,-0.97659 1.06482,-1.31338 0.87773,-0.61298 2.01154,-0.96168 3.52398,-1.08379 0.28705,-0.0231 5.17983,-0.0343 15.120623,-0.0343 h 14.69626 v 0.82753 c 0,0.87804 -0.0272,1.221591 -0.13031,1.64429 -0.13499,0.553641 -0.34544,0.98126 -0.66043,1.341921 -0.85666,0.980899 -1.85044,1.45694 -3.48437,1.66911 -0.82865,0.1076 -1.39007,0.123071 -5.02378,0.138499 l -3.6671,0.0155 -0.01,8.271939 c -0.0103,8.933117 -0.0177,12.703187 -0.0177,12.703187 0,0 -5.385653,0.0378 -8.681803,0.0378 z"
       id="path53-1" />
    <path
       style="opacity:1;fill:#000000;fill-opacity:1;fill-rule:nonzero;stroke:none;stroke-width:0.00661906;stroke-linecap:round;stroke-linejoin:round;stroke-miterlimit:4;stroke-dasharray:none;stroke-dashoffset:0;stroke-opacity:0.97989951;paint-order:normal"
       d="m 140.90892,106.51531 c -2.30436,-3.04314 -5.0565,-6.675584 -6.11589,-8.072076 -1.05939,-1.3965 -1.92667,-2.546901 -1.92728,-2.55645 0,-0.01021 2.9954,-0.01741 6.65776,-0.01741 h 6.65888 v -2.465501 -2.465491 h -8.6695 -8.66947 l -0.007,7.807391 -0.007,7.807357 -0.0498,0.35726 c -0.14777,1.05905 -0.39423,1.82474 -0.7984,2.48063 -0.7982,1.29529 -2.1924,2.02188 -4.39002,2.2879 -0.82958,0.10044 -1.2,0.1221 -2.29595,0.13434 l -1.07818,0.0121 V 98.568733 85.312154 l 13.80374,0.009 c 10.02823,0.005 13.87401,0.0154 14.0607,0.0344 0.88984,0.0904 1.36398,0.16718 1.96101,0.31735 0.9702,0.24405 1.73461,0.583881 2.48568,1.10506 0.40068,0.27805 0.54769,0.39871 0.82351,0.67601 0.81098,0.81526 1.22447,1.75692 1.32096,3.008179 0.0309,0.40078 0.0309,5.55366 0,5.954451 -0.0977,1.26693 -0.53655,2.263589 -1.36567,3.101369 -0.31007,0.313311 -0.49551,0.4681 -0.80087,0.668507 -1.17808,0.77313 -2.81247,1.23258 -4.81068,1.35232 -0.18161,0.0109 -0.33562,0.0255 -0.34229,0.0323 -0.007,0.006 1.81898,2.35224 4.05691,5.21188 2.23795,2.85964 4.07479,5.21505 4.08191,5.23422 0.0114,0.0309 -0.56491,0.0348 -5.19033,0.0333 l -5.20322,-0.001 z"
       id="path57-7" />
    <path
       style="opacity:1;fill:#000000;fill-opacity:1;fill-rule:nonzero;stroke:none;stroke-width:0.00937501;stroke-linecap:round;stroke-linejoin:round;stroke-miterlimit:4;stroke-dasharray:none;stroke-dashoffset:0;stroke-opacity:0.97989951;paint-order:normal"
       d="m 211.20043,111.96851 c -0.73755,-0.0236 -1.47724,-0.11049 -2.19445,-0.25768 -0.78912,-0.16199 -1.85589,-0.59819 -2.6701,-1.09186 -0.82997,-0.50323 -1.78646,-1.60038 -2.14307,-2.4582 -0.13414,-0.32271 -0.19283,-0.5236 -0.27281,-0.93385 -0.0546,-0.27981 -0.0574,-0.70966 -0.0574,-8.544905 0,-6.389352 0.009,-8.302551 0.0391,-8.48197 0.10575,-0.627441 0.31744,-1.15951 0.68918,-1.732191 0.61122,-0.941599 1.23085,-1.48241 2.34636,-2.04791 1.11537,-0.56541 2.0153,-0.8425 3.37576,-1.03942 0.32756,-0.0475 1.38613,-0.054 10.44419,-0.0645 6.87642,-0.007 10.27393,-5.82e-4 10.69091,0.0231 1.34102,0.0766 2.43147,0.29402 3.39844,0.67756 0.95536,0.3789 1.99303,1.07412 2.4909,1.66884 0.69979,0.83594 1.02462,1.69576 1.10852,2.934379 l 0.0217,0.319212 h -12.96797 -12.96792 v 2.471787 2.471823 h 8.19372 14.71401 v 2.799209 2.799196 h -14.71401 -8.19372 v 2.50454 2.50455 h 12.96792 12.96786 l -0.0214,0.31921 c -0.0337,0.50337 -0.10787,0.90934 -0.24458,1.33783 -0.40606,1.27274 -1.3357,2.27848 -2.69555,2.91617 -1.23476,0.57903 -2.35352,0.81687 -4.20579,0.89415 -0.6422,0.0268 -19.28831,0.0368 -20.09976,0.0109 z"
       id="path55-0" />
    <path
       style="opacity:1;fill:#000000;fill-opacity:1;fill-rule:nonzero;stroke:none;stroke-width:0.00615303;stroke-linecap:round;stroke-linejoin:round;stroke-miterlimit:4;stroke-dasharray:none;stroke-dashoffset:0;stroke-opacity:0.97989951;paint-order:normal"
       d="m 98.998687,136.39059 c -0.61699,-0.0532 -1.01354,-0.13007 -1.3583,-0.26301 -0.60229,-0.23229 -0.96271,-0.5524 -1.23687,-1.09867 -0.21339,-0.42515 -0.32274,-0.96698 -0.36475,-1.80771 -0.0214,-0.42936 -0.0281,-1.64556 -0.0119,-1.64556 2.93272,0 2.05597,0.004 3.24652,0.004 v 1.85244 h 5.560533 5.56054 v -1.78582 -1.78582 l -5.33326,-0.008 c -3.85628,-0.006 -5.391813,-0.0148 -5.544663,-0.0325 -0.89183,-0.10321 -1.29299,-0.22116 -1.74384,-0.51271 -0.49104,-0.31756 -0.8309,-0.86496 -0.97039,-1.56304 -0.11575,-0.57929 -0.11874,-0.64184 -0.11882,-2.48384 -1.1e-4,-1.85748 0.005,-1.96321 0.12607,-2.5384 0.16137,-0.76754 0.58708,-1.34271 1.23428,-1.66761 0.41016,-0.20589 1.06529,-0.34121 1.89553,-0.39149 0.484613,-0.0294 9.766013,-0.0299 10.243663,-5.3e-4 1.40224,0.086 2.12926,0.36249 2.64157,1.00453 0.27163,0.34047 0.44808,0.80385 0.53909,1.41586 0.0363,0.24407 0.0748,0.83206 0.0751,1.14618 l 1.9e-4,0.97973 c -1.18526,0 -1.08958,-10e-4 -3.23546,-10e-4 -0.013,0 -0.0206,-0.33114 -0.0206,-0.89857 v -0.89863 h -5.14821 -5.148263 v 1.69142 1.69142 l 5.216973,1.7e-4 c 3.41443,1.6e-4 5.30464,0.008 5.47069,0.0221 0.82902,0.0715 1.50132,0.24677 1.90968,0.49795 0.1954,0.12019 0.55409,0.47404 0.65556,0.64673 0.22741,0.387 0.386,0.95894 0.4708,1.69786 0.0351,0.3052 0.0507,2.99098 0.0206,3.52012 -0.0621,1.0904 -0.27419,1.82921 -0.66461,2.31527 -0.33094,0.41208 -0.92128,0.70409 -1.66529,0.82382 -0.59608,0.0959 -0.5905,0.0959 -6.50933,0.0929 -3.07573,-0.002 -5.682643,-0.0106 -5.793113,-0.0202 z"
       id="path55-1" />
    <path
       style="opacity:1;fill:#000000;fill-opacity:1;fill-rule:nonzero;stroke:none;stroke-width:0.00615303;stroke-linecap:round;stroke-linejoin:round;stroke-miterlimit:4;stroke-dasharray:none;stroke-dashoffset:0;stroke-opacity:0.97989951;paint-order:normal"
       d="m 123.93979,136.40004 c -0.85008,-0.0707 -1.22004,-0.15034 -1.65407,-0.35592 -0.47516,-0.2251 -0.79478,-0.53485 -1.02576,-0.99407 -0.22598,-0.4493 -0.33398,-0.98833 -0.37534,-1.87276 -0.0265,-0.56557 -0.0265,-8.71283 0,-9.27842 0.068,-1.45585 0.34833,-2.15683 1.06775,-2.67043 0.44929,-0.32075 1.1823,-0.5069 2.23057,-0.56645 0.29052,-0.0165 2.26346,-0.0211 6.68108,-0.0154 6.74716,0.009 6.43067,0.004 7.01939,0.11182 0.73539,0.13516 1.14819,0.30452 1.5199,0.62357 0.46009,0.39492 0.69768,0.96428 0.84228,2.01839 0.0312,0.22754 0.0357,0.73034 0.0428,4.87341 0.006,3.15928 0,4.73665 -0.0148,4.98968 -0.0776,1.25456 -0.39473,2.09809 -0.94475,2.51268 -0.30223,0.22781 -0.77584,0.42703 -1.21978,0.51309 -0.61383,0.11899 -0.13623,0.11157 -7.40357,0.11482 -3.67461,0.002 -6.71915,-1.8e-4 -6.76566,-0.004 z m 12.67505,-7.94652 v -4.97911 h -6.03623 -6.03626 v 4.97911 4.9791 h 6.03626 6.03623 z"
       id="path57-9" />
    <path
       style="opacity:1;fill:#000000;fill-opacity:1;fill-rule:nonzero;stroke:none;stroke-width:0.00615303;stroke-linecap:round;stroke-linejoin:round;stroke-miterlimit:4;stroke-dasharray:none;stroke-dashoffset:0;stroke-opacity:0.97989951;paint-order:normal"
       d="m 151.0839,136.40005 c -0.85225,-0.0712 -1.21994,-0.15028 -1.65404,-0.35593 -0.26877,-0.12731 -0.46033,-0.26039 -0.63379,-0.44027 -0.43606,-0.45222 -0.64434,-1.01249 -0.74832,-2.01266 -0.0204,-0.19483 -0.0282,-1.72682 -0.034,-6.60192 l -0.008,-6.34821 1.84552,0.005 1.84547,0.005 0.005,6.39039 0.005,6.39038 h 5.20107 5.20108 v -6.39568 -6.39568 h 1.83991 1.83991 l -0.007,6.40098 c -0.005,4.83553 -0.0132,6.4449 -0.0326,6.58067 -0.16449,1.16391 -0.42453,1.76941 -0.92332,2.15024 -0.30316,0.23144 -0.82516,0.44888 -1.2604,0.525 -0.62222,0.10884 -0.23521,0.10257 -6.54129,0.10588 -3.22106,0.002 -5.89455,-1e-4 -5.94106,-0.004 z"
       id="path59" />
    <path
       style="opacity:1;fill:#000000;fill-opacity:1;fill-rule:nonzero;stroke:none;stroke-width:0.00615303;stroke-linecap:round;stroke-linejoin:round;stroke-miterlimit:4;stroke-dasharray:none;stroke-dashoffset:0;stroke-opacity:0.97989951;paint-order:normal"
       d="m 173.82193,128.52972 v -7.89761 l 7.02466,0.008 c 5.21602,0.006 7.07638,0.0144 7.2255,0.0329 0.7588,0.094 1.32109,0.26615 1.72673,0.52867 0.17012,0.11009 0.43217,0.36015 0.54896,0.52381 0.22613,0.31691 0.3902,0.78023 0.46693,1.3186 0.0343,0.24009 0.0376,0.46842 0.0376,2.49484 0,1.71992 -0.006,2.28137 -0.0279,2.45255 -0.18944,1.50867 -0.90546,2.18307 -2.57349,2.42387 -0.21024,0.0304 -0.48274,0.0385 -1.61589,0.0484 l -1.363,0.012 3.60412,2.95659 c 1.98229,1.62613 3.60733,2.96525 3.61117,2.97584 0.004,0.0115 -1.05146,0.0191 -2.6217,0.0189 l -2.62872,-1.8e-4 -3.1714,-2.97977 -3.17143,-2.97977 -1.72842,-0.001 -1.72841,-0.001 v 2.98112 2.98113 h -1.80772 -1.80768 z m 12.33762,-0.79409 c 0.56341,-0.0567 0.86194,-0.20154 0.99809,-0.48426 0.1197,-0.24856 0.11959,-0.24724 0.12713,-1.60371 0.006,-1.04896 0.003,-1.28249 -0.0249,-1.42328 -0.0387,-0.20533 -0.10922,-0.36473 -0.21116,-0.47758 -0.15105,-0.16718 -0.50805,-0.29686 -0.94361,-0.34273 -0.12597,-0.0133 -1.77017,-0.0212 -4.43402,-0.0215 l -4.23384,-2.6e-4 v 2.18828 2.18827 h 4.24601 c 2.92417,0 4.31771,-0.007 4.47622,-0.0232 z"
       id="path67" />
    <path
       style="opacity:1;fill:#000000;fill-opacity:1;fill-rule:nonzero;stroke:none;stroke-width:0.00615303;stroke-linecap:round;stroke-linejoin:round;stroke-miterlimit:4;stroke-dasharray:none;stroke-dashoffset:0;stroke-opacity:0.97989951;paint-order:normal"
       d="m 201.03162,136.39837 c -0.79922,-0.0537 -1.25275,-0.15358 -1.69042,-0.37205 -0.48741,-0.24327 -0.77742,-0.53463 -1.00523,-1.00997 -0.2196,-0.45812 -0.31343,-0.92621 -0.3587,-1.7893 -0.0281,-0.53582 -0.0285,-8.85064 0,-9.3854 0.0725,-1.38234 0.33761,-2.06165 0.9991,-2.56008 0.46273,-0.34868 1.1068,-0.53432 2.11904,-0.61075 0.38516,-0.0291 10.55916,-0.0288 10.95196,1.8e-4 0.72546,0.0537 1.38879,0.20089 1.77141,0.39293 0.31866,0.15994 0.60669,0.39906 0.78983,0.65571 0.2508,0.35147 0.43077,0.91936 0.52843,1.66723 0.0403,0.30884 0.0694,3.07764 0.0332,3.07764 -1.36904,0 -2.15914,-0.001 -3.64117,-0.001 -0.0135,0 -0.0206,-0.53084 -0.0206,-1.49057 v -1.49056 h -4.93681 -4.93686 v 4.97912 4.97911 h 4.93686 4.93681 v -1.69412 -1.69412 l 0.0793,0.0136 c 3.36338,0 3.59995,2.7e-4 3.59995,2.7e-4 0,0 -0.0172,3.37176 -0.0427,3.56448 -0.0638,0.49052 -0.18758,1.02303 -0.29982,1.28983 -0.27355,0.65056 -0.69149,1.01856 -1.43248,1.26141 -0.38632,0.12661 -0.81743,0.19066 -1.50524,0.22364 -0.49713,0.0239 -10.51245,0.0172 -10.87512,-0.007 z"
       id="path69-3" />
    <path
       style="opacity:1;fill:#000000;fill-opacity:1;fill-rule:nonzero;stroke:none;stroke-width:0.00615303;stroke-linecap:round;stroke-linejoin:round;stroke-miterlimit:4;stroke-dasharray:none;stroke-dashoffset:0;stroke-opacity:0.97989951;paint-order:normal"
       d="m 222.71349,128.53531 v -7.88622 h 8.06595 8.06596 v 1.35314 1.35312 h -6.21602 -6.21591 v 1.74428 1.74426 h 3.62599 3.62592 v 1.35315 1.35313 h -3.62592 -3.62599 v 1.94513 1.94512 h 6.28994 6.28997 v 1.49057 1.49056 h -8.13996 -8.13993 z"
       id="path71-6" />
    <path
       style="opacity:1;fill:#000000;fill-opacity:1;fill-rule:nonzero;stroke:none;stroke-width:0.00171167;stroke-linecap:round;stroke-linejoin:round;stroke-miterlimit:4;stroke-dasharray:none;stroke-dashoffset:0;stroke-opacity:0.97989951;paint-order:normal"
       d="m 241.71253,123.10927 v -2.03503 h -0.71755 -0.71755 v -0.30881 -0.30882 l 1.58652,0.004 c 0.87262,0.002 1.67322,0.005 1.77919,0.006 l 0.19262,0.002 v 0.30275 0.30275 h -0.74698 -0.74694 v 2.03501 2.03503 h -0.31464 -0.31467 z"
       id="path1146" />
    <path
       style="opacity:1;fill:#000000;fill-opacity:1;fill-rule:nonzero;stroke:none;stroke-width:0.00171167;stroke-linecap:round;stroke-linejoin:round;stroke-miterlimit:4;stroke-dasharray:none;stroke-dashoffset:0;stroke-opacity:0.97989951;paint-order:normal"
       d="m 244.19784,125.12417 c 0.003,-0.0186 0.0652,-1.09497 0.14118,-2.39196 0.0759,-1.29699 0.13891,-2.35898 0.13991,-2.35998 0,-0.001 0.1619,-0.002 0.35751,-0.002 h 0.35568 l 0.67262,1.81887 c 0.36997,1.0004 0.67419,1.82069 0.67606,1.82291 0.003,0.002 0.30663,-0.81562 0.67723,-1.81742 l 0.67384,-1.82143 0.35663,-0.002 0.35664,-0.002 0.003,0.0192 c 0.003,0.0106 0.0641,1.06593 0.13877,2.34532 0.0747,1.27939 0.1374,2.348 0.13936,2.37468 l 0.003,0.0485 h -0.26223 -0.26223 l -0.003,-0.025 c -0.003,-0.0138 -0.0404,-0.86665 -0.086,-1.89534 -0.0456,-1.02869 -0.0847,-1.87754 -0.087,-1.88635 -0.003,-0.0128 -0.14663,0.37413 -0.70196,1.89386 l -0.69789,1.90988 -0.24628,0.002 -0.24627,0.002 -0.69969,-1.91407 c -0.38481,-1.05274 -0.70027,-1.91345 -0.70107,-1.91268 -0.003,0.002 -0.17219,3.77681 -0.17219,3.80823 v 0.0184 h -0.26458 -0.26459 z"
       id="path1210" />
    <path
       style="opacity:1;fill:#000000;fill-opacity:1;fill-rule:nonzero;stroke:none;stroke-width:0.00171167;stroke-linecap:round;stroke-linejoin:round;stroke-miterlimit:4;stroke-dasharray:none;stroke-dashoffset:0;stroke-opacity:0.97989951;paint-order:normal"
       d="m 241.71253,87.831374 v -2.03503 h -0.71755 -0.71755 v -0.30881 -0.30882 l 1.58652,0.004 c 0.87262,0.002 1.67322,0.005 1.77919,0.006 l 0.19262,0.002 v 0.30275 0.30275 h -0.74698 -0.74694 v 2.03501 2.03503 h -0.31464 -0.31467 z"
       id="path1146-7" />
    <path
       style="opacity:1;fill:#000000;fill-opacity:1;fill-rule:nonzero;stroke:none;stroke-width:0.00171167;stroke-linecap:round;stroke-linejoin:round;stroke-miterlimit:4;stroke-dasharray:none;stroke-dashoffset:0;stroke-opacity:0.97989951;paint-order:normal"
       d="m 244.19784,89.846274 c 0.003,-0.0186 0.0652,-1.09498 0.14118,-2.391969 0.0759,-1.296991 0.13891,-2.358971 0.13991,-2.359981 0,-0.001 0.1619,-0.002 0.35751,-0.002 h 0.35568 l 0.67262,1.81888 c 0.36997,1.00039 0.67419,1.820679 0.67606,1.8229 0.003,0.002 0.30663,-0.81562 0.67723,-1.81741 l 0.67384,-1.82143 0.35663,-0.002 0.35664,-0.002 0.003,0.0192 c 0.003,0.0106 0.0641,1.06593 0.13877,2.34532 0.0747,1.27939 0.1374,2.348 0.13936,2.37468 l 0.003,0.0485 h -0.26223 -0.26223 l -0.003,-0.025 c -0.003,-0.0138 -0.0404,-0.86665 -0.086,-1.89534 -0.0456,-1.02869 -0.0847,-1.87754 -0.087,-1.88635 -0.003,-0.0128 -0.14663,0.37413 -0.70196,1.89386 l -0.69789,1.90988 -0.24628,0.002 -0.24627,0.002 -0.69969,-1.91408 c -0.38481,-1.05276 -0.70027,-1.91347 -0.70107,-1.9127 -0.003,0.002 -0.17219,3.77682 -0.17219,3.80823 v 0.0184 h -0.26458 -0.26459 z"
       id="path1210-2" />
  </g>
</svg>
